
o Sphere_Mesh
v 0.000000 0.525731 0.850651
v 0.000000 -0.525731 0.850651
v 0.850651 -0.000000 0.525731
v 0.850651 0.000000 -0.525731
v 0.000000 0.525731 -0.850651
v 0.000000 -0.525731 -0.850651
v -0.850651 0.000000 -0.525731
v -0.850651 -0.000000 0.525731
v 0.525731 0.850651 0.000000
v -0.525731 0.850651 0.000000
v -0.525731 -0.850651 -0.000000
v 0.525731 -0.850651 -0.000000
v 0.000000 1.000000 0.000000
v 0.309017 0.809017 0.500000
v -0.309017 0.809017 0.500000
v 0.809017 0.500000 0.309017
v 0.500000 0.309017 0.809017
v 0.809017 0.500000 -0.309017
v 1.000000 0.000000 0.000000
v 0.309017 0.809017 -0.500000
v 0.500000 0.309017 -0.809017
v -0.309017 0.809017 -0.500000
v -0.809017 0.500000 -0.309017
v -0.500000 0.309017 -0.809017
v -0.809017 0.500000 0.309017
v -1.000000 0.000000 0.000000
v -0.500000 0.309017 0.809017
v 0.000000 -1.000000 -0.000000
v -0.309017 -0.809017 0.500000
v 0.309017 -0.809017 0.500000
v 0.809017 -0.500000 0.309017
v 0.500000 -0.309017 0.809017
v 0.809017 -0.500000 -0.309017
v 0.500000 -0.309017 -0.809017
v 0.309017 -0.809017 -0.500000
v -0.309017 -0.809017 -0.500000
v -0.500000 -0.309017 -0.809017
v -0.809017 -0.500000 -0.309017
v -0.809017 -0.500000 0.309017
v -0.500000 -0.309017 0.809017
v 0.000000 -0.000000 1.000000
v 0.000000 0.000000 -1.000000
vt 0.600000 0.307000
vt 0.650000 0.220500
vt 0.700000 0.307000
vt 0.550000 0.220500
vt 0.600000 0.134000
vt 0.500000 0.307000
vt 0.500000 0.134000
vt 0.450000 0.220500
vt 0.400000 0.134000
vt 0.050000 0.913500
vt 0.150000 0.913500
vt 0.100000 1.000000
vt 0.100000 0.827000
vt 0.200000 0.827000
vt 0.000000 0.827000
vt 0.200000 1.000000
vt 0.250000 0.913500
vt 0.300000 1.000000
vt 0.950000 0.566500
vt 0.900000 0.480000
vt 1.000000 0.480000
vt 0.850000 0.566500
vt 0.800000 0.480000
vt 0.900000 0.653000
vt 0.800000 0.653000
vt 0.750000 0.566500
vt 0.700000 0.653000
vt 0.650000 0.566500
vt 0.700000 0.480000
vt 0.600000 0.480000
vt 0.650000 0.393500
vt 0.550000 0.393500
vt 0.350000 0.566500
vt 0.400000 0.653000
vt 0.300000 0.653000
vt 0.450000 0.566500
vt 0.500000 0.653000
vt 0.400000 0.480000
vt 0.350000 0.393500
vt 0.250000 0.393500
vt 0.300000 0.307000
vt 0.300000 0.480000
vt 0.200000 0.480000
vt 0.200000 0.653500
vt 0.150000 0.740500
vt 0.100000 0.654000
vt 0.250000 0.740000
vt 0.300000 0.827000
vt 0.350000 0.740000
vt 0.400000 0.827000
vt 0.450000 0.740000
vt 0.500000 0.827000
vt 0.450000 0.913500
vt 0.550000 0.913500
vt 0.500000 1.000000
vt 0.600000 0.827000
vt 0.600000 0.653000
vt 0.550000 0.566500
vt 0.500000 0.480000
vt 0.450000 0.393500
vt 0.400000 0.307000
vt 0.350000 0.913500
vt 0.400000 1.000000
vn -0.2680 0.9435 0.1947
vn 0.2680 0.9435 0.1947
vn 0.0000 0.9342 0.3568
vn 0.0000 0.7779 0.6284
vn 0.5831 0.7488 0.3151
vn 0.7488 0.3151 0.5831
vn 0.5774 0.5774 0.5774
vn 0.3151 0.5831 0.7488
vn 0.7779 0.6284 0.0000
vn 0.9435 0.1947 -0.2680
vn 0.9342 0.3568 0.0000
vn 0.9435 0.1947 0.2680
vn 0.5831 0.7488 -0.3151
vn 0.3151 0.5831 -0.7488
vn 0.5774 0.5774 -0.5774
vn 0.7488 0.3151 -0.5831
vn 0.2680 0.9435 -0.1947
vn -0.2680 0.9435 -0.1947
vn 0.0000 0.9342 -0.3568
vn 0.0000 0.7779 -0.6284
vn -0.3151 0.5831 -0.7488
vn -0.5831 0.7488 -0.3151
vn -0.5774 0.5774 -0.5774
vn -0.7488 0.3151 -0.5831
vn -0.9435 0.1947 -0.2680
vn -0.7779 0.6284 0.0000
vn -0.9342 0.3568 0.0000
vn -0.9435 0.1947 0.2680
vn -0.5831 0.7488 0.3151
vn -0.3151 0.5831 0.7488
vn -0.5774 0.5774 0.5774
vn -0.7488 0.3151 0.5831
vn 0.2680 -0.9435 0.1947
vn -0.2680 -0.9435 0.1947
vn 0.0000 -0.9342 0.3568
vn 0.0000 -0.7779 0.6284
vn 0.7488 -0.3151 0.5831
vn 0.5831 -0.7488 0.3151
vn 0.5774 -0.5774 0.5774
vn 0.3151 -0.5831 0.7488
vn 0.9435 -0.1947 0.2680
vn 0.9435 -0.1947 -0.2680
vn 0.9342 -0.3568 -0.0000
vn 0.7779 -0.6284 0.0000
vn 0.7488 -0.3151 -0.5831
vn 0.3151 -0.5831 -0.7488
vn 0.5774 -0.5774 -0.5774
vn 0.5831 -0.7488 -0.3151
vn 0.0000 -0.7779 -0.6284
vn -0.2680 -0.9435 -0.1947
vn 0.0000 -0.9342 -0.3568
vn 0.2680 -0.9435 -0.1947
vn -0.3151 -0.5831 -0.7488
vn -0.7488 -0.3151 -0.5831
vn -0.5774 -0.5774 -0.5774
vn -0.5831 -0.7488 -0.3151
vn -0.9435 -0.1947 -0.2680
vn -0.9435 -0.1947 0.2680
vn -0.9342 -0.3568 -0.0000
vn -0.7779 -0.6284 0.0000
vn -0.7488 -0.3151 0.5831
vn -0.3151 -0.5831 0.7488
vn -0.5774 -0.5774 0.5774
vn -0.5831 -0.7488 0.3151
vn -0.1947 -0.2680 0.9435
vn -0.6284 -0.0000 0.7779
vn -0.3568 -0.0000 0.9342
vn -0.1947 0.2680 0.9435
vn 0.6284 -0.0000 0.7779
vn 0.1947 -0.2680 0.9435
vn 0.3568 -0.0000 0.9342
vn 0.1947 0.2680 0.9435
vn 0.1947 0.2680 -0.9435
vn 0.1947 -0.2680 -0.9435
vn 0.3568 0.0000 -0.9342
vn 0.6284 0.0000 -0.7779
vn -0.1947 0.2680 -0.9435
vn -0.6284 0.0000 -0.7779
vn -0.3568 0.0000 -0.9342
vn -0.1947 -0.2680 -0.9435

s 1
f 15/1/1 13/2/1 10/3/1
f 14/4/2 9/5/2 13/2/2
f 13/2/3 15/1/3 14/4/3
f 1/6/4 14/4/4 15/1/4
f 14/4/5 16/7/5 9/5/5
f 17/8/6 3/9/6 16/7/6
f 16/7/7 14/4/7 17/8/7
f 1/6/8 17/8/8 14/4/8
f 16/10/9 18/11/9 9/12/9
f 19/13/10 4/14/10 18/11/10
f 18/11/11 16/10/11 19/13/11
f 3/15/12 19/13/12 16/10/12
f 18/11/13 20/16/13 9/12/13
f 21/17/14 5/18/14 20/16/14
f 20/16/15 18/11/15 21/17/15
f 4/14/16 21/17/16 18/11/16
f 20/19/17 13/20/17 9/21/17
f 22/22/18 10/23/18 13/20/18
f 13/20/19 20/19/19 22/22/19
f 5/24/20 22/22/20 20/19/20
f 24/25/21 22/22/21 5/24/21
f 23/26/22 10/23/22 22/22/22
f 22/22/23 24/25/23 23/26/23
f 7/27/24 23/26/24 24/25/24
f 26/28/25 23/26/25 7/27/25
f 25/29/26 10/23/26 23/26/26
f 23/26/27 26/28/27 25/29/27
f 8/30/28 25/29/28 26/28/28
f 25/31/29 15/1/29 10/3/29
f 27/32/30 1/6/30 15/1/30
f 15/1/31 25/31/31 27/32/31
f 8/30/32 27/32/32 25/31/32
f 30/33/33 28/34/33 12/35/33
f 29/36/34 11/37/34 28/34/34
f 28/34/35 30/33/35 29/36/35
f 2/38/36 29/36/36 30/33/36
f 32/39/37 31/40/37 3/41/37
f 30/42/38 12/43/38 31/40/38
f 31/40/39 32/39/39 30/42/39
f 2/38/40 30/42/40 32/39/40
f 31/44/41 19/45/41 3/46/41
f 33/47/42 4/14/42 19/45/42
f 19/45/43 31/44/43 33/47/43
f 12/35/44 33/47/44 31/44/44
f 33/47/45 34/48/45 4/14/45
f 35/49/46 6/50/46 34/48/46
f 34/48/47 33/47/47 35/49/47
f 12/35/48 35/49/48 33/47/48
f 35/49/49 36/51/49 6/50/49
f 28/34/50 11/37/50 36/51/50
f 36/51/51 35/49/51 28/34/51
f 12/35/52 28/34/52 35/49/52
f 36/52/53 37/53/53 6/50/53
f 38/54/54 7/55/54 37/53/54
f 37/53/55 36/52/55 38/54/55
f 11/56/56 38/54/56 36/52/56
f 38/57/57 26/28/57 7/27/57
f 39/58/58 8/30/58 26/28/58
f 26/28/59 38/57/59 39/58/59
f 11/37/60 39/58/60 38/57/60
f 39/58/61 40/59/61 8/30/61
f 29/36/62 2/38/62 40/59/62
f 40/59/63 39/58/63 29/36/63
f 11/37/64 29/36/64 39/58/64
f 41/60/65 40/59/65 2/38/65
f 27/32/66 8/30/66 40/59/66
f 40/59/67 41/60/67 27/32/67
f 1/6/68 27/32/68 41/60/68
f 17/61/69 32/39/69 3/41/69
f 41/60/70 2/38/70 32/39/70
f 32/39/71 17/61/71 41/60/71
f 1/6/72 41/60/72 17/61/72
f 21/17/73 42/62/73 5/18/73
f 34/48/74 6/50/74 42/62/74
f 42/62/75 21/17/75 34/48/75
f 4/14/76 34/48/76 21/17/76
f 42/62/77 24/63/77 5/18/77
f 37/53/78 7/55/78 24/63/78
f 24/63/79 42/62/79 37/53/79
f 6/50/80 37/53/80 42/62/80
